<svg width="30" height="20" viewBox="0 0 30 20" fill="none" xmlns="http://www.w3.org/2000/svg">
  <path d="M9.157 7.528c0 .373.038.675.106.897.077.222.174.464.309.726.048.08.067.161.067.232 0 .1-.057.202-.183.302l-.608.424a.45.45 0 0 1-.251.09c-.097 0-.193-.05-.29-.14a3.111 3.111 0 0 1-.347-.474 7.93 7.93 0 0 1-.3-.595c-.752.927-1.698 1.391-2.837 1.391-.81 0-1.458-.242-1.93-.726-.473-.484-.715-1.129-.715-1.936 0-.857.29-1.552.879-2.076.588-.525 1.37-.787 2.364-.787.329 0 .666.03 1.024.08.357.051.723.132 1.11.223v-.736c0-.766-.155-1.3-.454-1.613-.309-.313-.83-.464-1.573-.464-.338 0-.686.04-1.043.131-.357.09-.704.202-1.042.343-.155.07-.27.11-.338.13a.57.57 0 0 1-.155.031c-.135 0-.202-.1-.202-.312v-.494c0-.162.019-.283.067-.353a.728.728 0 0 1 .27-.212 5.405 5.405 0 0 1 1.217-.454A5.616 5.616 0 0 1 5.807.965c1.15 0 1.989.272 2.53.816.53.545.8 1.371.8 2.48v3.267h.02ZM5.238 9.06c.319 0 .647-.06.994-.181.348-.121.657-.343.917-.645.155-.192.27-.404.328-.646.058-.242.097-.534.097-.877v-.423c-.28-.07-.58-.131-.888-.172a6.967 6.967 0 0 0-.907-.06c-.647 0-1.12.131-1.439.403-.318.272-.473.656-.473 1.16 0 .473.116.826.358 1.068.231.252.569.373 1.013.373Zm7.75 1.09c-.173 0-.289-.031-.366-.102-.077-.06-.145-.201-.203-.393l-2.268-7.793a1.833 1.833 0 0 1-.087-.403c0-.162.077-.252.232-.252h.946c.183 0 .309.03.376.1.077.061.135.202.193.394l1.622 6.674L14.939 1.7c.048-.202.106-.333.183-.393.077-.061.212-.101.386-.101h.772c.184 0 .31.03.386.1.078.061.145.202.184.394l1.525 6.754 1.67-6.754c.058-.202.125-.333.193-.393.077-.061.202-.101.376-.101h.898c.154 0 .241.08.241.252 0 .05-.01.1-.02.161a1.48 1.48 0 0 1-.067.252L19.34 9.665c-.058.202-.125.333-.203.393a.599.599 0 0 1-.366.101h-.83c-.184 0-.31-.03-.387-.1-.077-.071-.144-.202-.183-.404l-1.496-6.503-1.487 6.493c-.048.202-.106.333-.183.403s-.212.101-.386.101h-.83Zm12.404.271c-.502 0-1.004-.06-1.486-.181-.483-.121-.86-.252-1.11-.403-.155-.091-.261-.192-.3-.283a.737.737 0 0 1-.058-.282v-.514c0-.212.078-.313.222-.313.058 0 .116.01.174.03.058.02.145.061.242.101.328.152.685.273 1.061.353.386.08.763.121 1.149.121.608 0 1.08-.11 1.41-.333.327-.221.501-.544.501-.957 0-.283-.087-.514-.26-.706-.174-.192-.503-.363-.976-.524l-1.4-.454c-.704-.232-1.225-.575-1.543-1.028a2.47 2.47 0 0 1-.483-1.462c0-.423.087-.796.26-1.12.174-.322.406-.604.695-.826.29-.232.618-.403 1.004-.524a4.04 4.04 0 0 1 1.217-.171c.212 0 .434.01.646.04.222.03.425.07.628.11.193.051.376.102.55.162.174.06.309.121.405.182.135.08.232.16.29.252.058.08.087.191.087.332v.474c0 .212-.078.323-.222.323-.078 0-.203-.04-.367-.121-.55-.262-1.168-.393-1.853-.393-.55 0-.985.09-1.284.282-.3.191-.454.484-.454.897 0 .282.097.524.29.716.193.191.55.383 1.062.554l1.37.454c.695.232 1.197.555 1.496.968.3.413.444.887.444 1.411 0 .434-.087.827-.25 1.17a2.688 2.688 0 0 1-.705.887c-.3.252-.657.434-1.072.565a4.41 4.41 0 0 1-1.38.211Z" fill="#252F3E"/>
  <path fill-rule="evenodd" clip-rule="evenodd" d="M27.216 15.321c-3.175 2.45-7.79 3.75-11.756 3.75-5.56 0-10.57-2.147-14.353-5.716-.3-.282-.03-.665.328-.444 4.092 2.48 9.14 3.983 14.362 3.983 3.523 0 7.394-.766 10.956-2.34.53-.251.984.364.463.767Z" fill="#F90"/>
  <path fill-rule="evenodd" clip-rule="evenodd" d="M28.539 13.748c-.406-.544-2.684-.262-3.716-.13-.31.04-.358-.243-.078-.454 1.815-1.331 4.797-.948 5.145-.505.347.454-.097 3.57-1.795 5.062-.261.231-.512.11-.396-.192.386-.998 1.245-3.246.84-3.78Z" fill="#F90"/>
</svg>