<svg width="52" height="8" viewBox="0 0 52 8" fill="none" xmlns="http://www.w3.org/2000/svg">
<path d="M22.2934 7.30688L20.0226 0.997913C19.9835 0.900942 19.9592 0.798644 19.9507 0.694464C19.9557 0.551511 20.0162 0.416089 20.1194 0.316761C20.2226 0.217433 20.3605 0.161963 20.5039 0.162051C20.6345 0.165992 20.76 0.213534 20.8603 0.297062C20.9606 0.38059 21.0299 0.495271 21.0571 0.62274L22.96 6.07102L24.8575 0.606189C24.8851 0.480124 24.955 0.367193 25.0555 0.285971C25.156 0.204749 25.2813 0.160073 25.4107 0.159292H25.4688C25.6014 0.158419 25.7305 0.201996 25.8353 0.283034C25.9401 0.364071 26.0146 0.477874 26.0469 0.606189L27.9249 6.07102L29.8362 0.606189C29.8603 0.481933 29.9265 0.369716 30.0237 0.288351C30.1209 0.206986 30.2432 0.16142 30.37 0.159292C30.4406 0.156715 30.511 0.168127 30.5771 0.192867C30.6432 0.217606 30.7038 0.255182 30.7552 0.303418C30.8067 0.351654 30.848 0.409591 30.8768 0.473874C30.9057 0.538157 30.9215 0.607509 30.9232 0.677913C30.9142 0.782021 30.89 0.884255 30.8513 0.981361L28.5639 7.30412C28.5306 7.44248 28.4534 7.56641 28.3437 7.6574C28.2341 7.74839 28.0978 7.80155 27.9554 7.80895H27.9111C27.7669 7.80775 27.6274 7.75683 27.5165 7.66482C27.4056 7.57281 27.33 7.44537 27.3026 7.30412L25.4494 1.93309L23.5547 7.30688C23.5273 7.44813 23.4517 7.57557 23.3408 7.66758C23.2299 7.75959 23.0905 7.81051 22.9462 7.81171H22.9158C22.771 7.80679 22.6319 7.7548 22.5195 7.66365C22.4072 7.57251 22.3278 7.44721 22.2934 7.30688Z" fill="#696566"/>
<path d="M38.856 0.710904C38.856 0.564577 38.9142 0.424244 39.018 0.320776C39.1217 0.217308 39.2624 0.15918 39.4091 0.15918C39.5559 0.15918 39.6966 0.217308 39.8003 0.320776C39.9041 0.424244 39.9623 0.564577 39.9623 0.710904V1.9909C40.1834 1.47803 40.5421 1.03592 40.9989 0.71323C41.4556 0.390541 41.9928 0.19978 42.5513 0.161938C42.6245 0.159641 42.6975 0.172341 42.7657 0.199255C42.8338 0.226168 42.8957 0.266725 42.9476 0.318422C42.9994 0.37012 43.0401 0.431862 43.067 0.499839C43.094 0.567816 43.1068 0.640587 43.1045 0.713662C43.1052 0.850484 43.055 0.982705 42.9635 1.08466C42.872 1.18661 42.7458 1.25102 42.6094 1.26539C41.16 1.43918 39.9706 2.52332 39.9706 4.6778V7.21297C39.9706 7.3593 39.9124 7.49963 39.8086 7.6031C39.7049 7.70657 39.5642 7.7647 39.4174 7.7647C39.2707 7.7647 39.13 7.70657 39.0263 7.6031C38.9225 7.49963 38.8643 7.3593 38.8643 7.21297V0.710904H38.856Z" fill="#696566"/>
<path d="M46.6864 7.86947C44.6672 7.86947 43.0215 6.30809 43.0215 4.0074V3.97706C43.0215 1.84465 44.5151 0.11499 46.5453 0.11499C48.7166 0.11499 49.9557 1.90258 49.9557 3.86396C49.9611 3.93451 49.9517 4.00541 49.9283 4.07219C49.9048 4.13897 49.8678 4.20019 49.8195 4.25201C49.7711 4.30382 49.7126 4.34511 49.6475 4.37328C49.5824 4.40144 49.5122 4.41588 49.4413 4.41568H44.1306C44.2855 6.01844 45.4057 6.91775 46.7168 6.91775C47.5083 6.92292 48.2694 6.61432 48.8328 6.05982C48.9001 5.99681 48.9845 5.95484 49.0754 5.93908C49.1664 5.92331 49.26 5.93445 49.3447 5.97112C49.4294 6.00778 49.5015 6.06837 49.5521 6.1454C49.6026 6.22244 49.6295 6.31256 49.6294 6.40464C49.6284 6.47283 49.6126 6.53999 49.583 6.60145C49.5534 6.66291 49.5107 6.71719 49.4579 6.76051C49.0981 7.12485 48.6667 7.41098 48.1907 7.60088C47.7146 7.79079 47.2043 7.88036 46.6919 7.86396L46.6864 7.86947ZM48.8604 3.58809C48.747 2.24189 47.9781 1.06947 46.5149 1.06947C45.237 1.06947 44.2689 2.14258 44.1306 3.58809H48.8604Z" fill="#696566"/>
<path d="M30.9398 5.55214V5.51904C30.9398 3.94938 32.2398 3.11076 34.1345 3.11076C34.9121 3.10317 35.6866 3.21007 36.433 3.428V3.17421C36.433 1.83352 35.6032 1.14111 34.2064 1.14111C33.6077 1.11542 33.0115 1.23171 32.4666 1.48042C32.4035 1.50732 32.336 1.52228 32.2674 1.52455C32.1394 1.52391 32.0167 1.47385 31.9249 1.38487C31.8331 1.29589 31.7794 1.17491 31.7751 1.04731C31.7697 0.947044 31.7974 0.847774 31.8538 0.764611C31.9102 0.681449 31.9923 0.618949 32.0877 0.586623C32.7896 0.274297 33.5546 0.128865 34.3225 0.161795C35.3764 0.161795 36.1868 0.437657 36.7345 0.989382C37.2406 1.49421 37.5006 2.21421 37.5006 3.16593V7.27352C37.5041 7.34548 37.4926 7.41736 37.4671 7.48475C37.4415 7.55213 37.4024 7.61357 37.3521 7.66528C37.3018 7.71698 37.2415 7.75786 37.1747 7.78537C37.108 7.81289 37.0363 7.82646 36.964 7.82524C36.8945 7.82788 36.8252 7.81635 36.7603 7.79136C36.6954 7.76637 36.6363 7.72845 36.5866 7.67991C36.5369 7.63137 36.4976 7.57324 36.4712 7.50905C36.4448 7.44487 36.4318 7.37599 36.433 7.30662V6.59214C36.1172 7.00474 35.7073 7.33632 35.2373 7.5594C34.7674 7.78248 34.2509 7.89064 33.7306 7.8749C32.3477 7.8749 30.937 7.08317 30.937 5.55214H30.9398ZM36.4496 4.96731V4.25559C35.7354 4.0461 34.995 3.93928 34.2506 3.93835C32.8511 3.93835 32.0683 4.54524 32.0683 5.48042V5.51904C32.0683 6.45697 32.934 7.00317 33.9464 7.00317C35.3294 7.00317 36.4357 6.17559 36.4357 4.98662" fill="#696566"/>
<path d="M2.04383 0.628192C1.98713 0.499515 1.90514 0.383486 1.80269 0.286971C1.70024 0.190456 1.57942 0.115416 1.44738 0.0662894C1.31534 0.0171632 1.17476 -0.0050506 1.03396 0.000962232C0.893165 0.00697506 0.755006 0.0410924 0.62766 0.101296C0.497786 0.156697 0.380664 0.23804 0.283513 0.34031C0.186362 0.442581 0.111242 0.563611 0.0627815 0.695942C0.0143212 0.828273 -0.00645208 0.9691 0.00174208 1.10974C0.00993624 1.25039 0.0469242 1.38787 0.110426 1.51371L2.49192 6.65578C2.86532 7.4613 3.25809 7.88336 3.9966 7.88336C4.78489 7.88336 5.12787 7.42268 5.50128 6.65578L7.58128 2.11509C7.60553 2.05726 7.64746 2.00853 7.70109 1.97584C7.75473 1.94315 7.81733 1.92816 7.88 1.93302C7.92346 1.93338 7.96642 1.94232 8.0064 1.95932C8.04638 1.97632 8.08258 2.00106 8.11293 2.03209C8.14327 2.06312 8.16715 2.09984 8.18319 2.14013C8.19923 2.18042 8.20712 2.22347 8.20638 2.26681V6.65026C8.20638 7.32612 8.58255 7.88336 9.31277 7.88336C10.043 7.88336 10.4191 7.33164 10.4191 6.65026V3.06405C10.4134 2.90969 10.4402 2.75585 10.4978 2.61247C10.5555 2.46909 10.6426 2.33938 10.7537 2.23173C10.8648 2.12407 10.9973 2.04088 11.1426 1.98752C11.2879 1.93417 11.4429 1.91184 11.5974 1.92199C11.7482 1.91524 11.8986 1.94001 12.0391 1.99472C12.1797 2.04942 12.3072 2.13284 12.4135 2.23962C12.5197 2.3464 12.6025 2.47417 12.6563 2.61473C12.7101 2.75529 12.7338 2.90552 12.726 3.05578V6.64198C12.726 7.31785 13.1049 7.87509 13.8323 7.87509C14.5598 7.87509 14.9387 7.32336 14.9387 6.64198V3.05578C14.933 2.90166 14.9597 2.74807 15.0172 2.60489C15.0747 2.46172 15.1616 2.33215 15.2723 2.22454C15.3831 2.11692 15.5153 2.03367 15.6603 1.98013C15.8053 1.92659 15.9599 1.90397 16.1143 1.91371C16.2659 1.90647 16.4174 1.93116 16.5589 1.98618C16.7004 2.04119 16.8286 2.12531 16.9353 2.23304C17.0421 2.34078 17.1248 2.46972 17.1783 2.61147C17.2317 2.75322 17.2546 2.90461 17.2455 3.05578V6.64198C17.2455 7.31785 17.6217 7.87509 18.3519 7.87509C19.0821 7.87509 19.4583 7.32336 19.4583 6.64198V2.55923C19.4749 1.05578 18.2579 0.0019853 16.803 0.0019853C15.9117 0.0176248 15.0615 0.378765 14.4326 1.00888C13.9485 0.379916 13.2791 0.0019853 12.1479 0.0019853C10.953 0.0019853 9.90745 1.00612 9.90745 1.00612C9.66713 0.705409 9.36453 0.460008 9.02034 0.286703C8.67615 0.113398 8.29849 0.0162777 7.91319 0.0019853C6.85383 0.0019853 6.01298 0.465434 5.50128 1.63509L3.98553 5.19647L2.04383 0.628192Z" fill="#696566"/>
<path d="M50.0444 1.07486C50.0444 0.830128 50.1419 0.59542 50.3154 0.422369C50.4889 0.249319 50.7243 0.1521 50.9697 0.1521C51.215 0.1521 51.4504 0.249319 51.6239 0.422369C51.7974 0.59542 51.8949 0.830128 51.8949 1.07486C51.8952 1.19658 51.8715 1.31718 51.8252 1.42978C51.7788 1.54237 51.7107 1.64476 51.6246 1.73108C51.5386 1.81741 51.4363 1.88599 51.3237 1.9329C51.2111 1.97982 51.0903 2.00415 50.9683 2.00451C50.8468 2.00488 50.7265 1.98129 50.6143 1.93512C50.5021 1.88895 50.4001 1.82109 50.3142 1.73546C50.2284 1.64983 50.1603 1.54811 50.114 1.43616C50.0677 1.32421 50.0441 1.20423 50.0444 1.08313V1.07486ZM51.704 1.08313C51.7055 0.984527 51.6872 0.886617 51.6503 0.795125C51.6134 0.703634 51.5586 0.620397 51.4891 0.550279C51.4195 0.480162 51.3367 0.42457 51.2454 0.386753C51.154 0.348936 51.0561 0.329653 50.9572 0.330031C50.8582 0.330391 50.7602 0.350249 50.6689 0.388464C50.5775 0.426679 50.4947 0.4825 50.425 0.552725C50.3554 0.62295 50.3003 0.706197 50.263 0.797691C50.2257 0.889185 50.2069 0.987125 50.2076 1.08589C50.2014 1.1877 50.2162 1.2897 50.251 1.38562C50.2857 1.48153 50.3399 1.56933 50.4099 1.64361C50.48 1.71789 50.5646 1.77708 50.6585 1.81754C50.7524 1.858 50.8536 1.87887 50.9558 1.87887C51.0581 1.87887 51.1593 1.858 51.2532 1.81754C51.347 1.77708 51.4316 1.71789 51.5017 1.64361C51.5718 1.56933 51.6259 1.48153 51.6607 1.38562C51.6955 1.2897 51.7102 1.1877 51.704 1.08589" fill="#696566"/>
<path d="M50.6196 0.702613C50.6196 0.676275 50.6301 0.651015 50.6488 0.632391C50.6675 0.613766 50.6928 0.603303 50.7192 0.603303H51.029C51.0767 0.59967 51.1247 0.605878 51.1699 0.62154C51.2151 0.637203 51.2566 0.661983 51.2918 0.694338C51.3179 0.721321 51.3383 0.753342 51.3516 0.788443C51.3649 0.823543 51.3709 0.860984 51.3692 0.898476C51.3729 0.957617 51.3574 1.01638 51.3251 1.06606C51.2927 1.11575 51.2451 1.15371 51.1894 1.17434L51.325 1.33985C51.3435 1.36039 51.3542 1.38673 51.3554 1.41434C51.3554 1.42653 51.3529 1.4386 51.3482 1.44982C51.3434 1.46105 51.3364 1.47121 51.3277 1.4797C51.3189 1.48819 51.3085 1.49484 51.2971 1.49925C51.2857 1.50366 51.2736 1.50574 51.2613 1.50537C51.2424 1.50516 51.2239 1.50056 51.2071 1.49194C51.1902 1.48332 51.1757 1.47092 51.1645 1.45572L50.9737 1.21296H50.816V1.40606C50.8164 1.41897 50.8142 1.43182 50.8095 1.44386C50.8048 1.45589 50.7977 1.46686 50.7887 1.47612C50.7796 1.48538 50.7688 1.49274 50.7569 1.49777C50.745 1.50279 50.7322 1.50538 50.7192 1.50537C50.7061 1.50537 50.6932 1.5028 50.6811 1.49781C50.669 1.49282 50.658 1.48551 50.6488 1.47628C50.6395 1.46706 50.6322 1.45611 50.6272 1.44407C50.6222 1.43202 50.6196 1.4191 50.6196 1.40606V0.702613ZM51.0179 1.03917C51.1147 1.03917 51.1673 0.98951 51.1673 0.912269C51.1673 0.82951 51.112 0.785372 51.0152 0.785372H50.8188V1.04192H51.0179V1.03917Z" fill="#696566"/>
</svg>
